<?xml version="1.0" encoding="UTF-8" standalone="no"?>
<!-- Created with Inkscape (http://www.inkscape.org/) -->
<!-- vim: set nowrap ts=3 sw=3 et : -->

<svg
   xmlns:dc="http://purl.org/dc/elements/1.1/"
   xmlns:cc="http://creativecommons.org/ns#"
   xmlns:rdf="http://www.w3.org/1999/02/22-rdf-syntax-ns#"
   xmlns:svg="http://www.w3.org/2000/svg"
   xmlns="http://www.w3.org/2000/svg"
   xmlns:sodipodi="http://sodipodi.sourceforge.net/DTD/sodipodi-0.dtd"
   xmlns:inkscape="http://www.inkscape.org/namespaces/inkscape"
   width="225"
   height="315"
   id="svg3156"
   version="1.1"
   inkscape:version="0.91 r13725"
   sodipodi:docname="card-template-jinja2.svg">
  <defs
     id="defs3158" />
  <sodipodi:namedview
     id="base"
     pagecolor="#ffffff"
     bordercolor="#666666"
     borderopacity="1.0"
     inkscape:pageopacity="0.0"
     inkscape:pageshadow="2"
     inkscape:zoom="1.5"
     inkscape:cx="83.918896"
     inkscape:cy="145.68014"
     inkscape:document-units="px"
     inkscape:current-layer="layer1"
     showgrid="false"
     fit-margin-top="0"
     fit-margin-left="0"
     fit-margin-right="0"
     fit-margin-bottom="0"
     showguides="true"
     inkscape:guide-bbox="true"
     units="in"
     inkscape:snap-bbox="true"
     inkscape:window-width="1278"
     inkscape:window-height="780"
     inkscape:window-x="0"
     inkscape:window-y="18"
     inkscape:window-maximized="0">
    <sodipodi:guide
       orientation="0,1"
       position="11.25,303.75"
       id="guide3411" />
    <sodipodi:guide
       orientation="1,0"
       position="11.25,11.25"
       id="guide3413" />
    <sodipodi:guide
       orientation="0,1"
       position="11.25,11.25"
       id="guide3417" />
    <sodipodi:guide
       orientation="1,0"
       position="213.75,11.25"
       id="guide3419" />
  </sodipodi:namedview>
  <metadata
     id="metadata3161">
    <rdf:RDF>
      <cc:Work
         rdf:about="">
        <dc:format>image/svg+xml</dc:format>
        <dc:type
           rdf:resource="http://purl.org/dc/dcmitype/StillImage" />
        <dc:title />
      </cc:Work>
    </rdf:RDF>
  </metadata>
  <g
     inkscape:label="Layer 1"
     inkscape:groupmode="layer"
     id="layer1"
     transform="translate(-289.47625,-110.031)">
    <rect
       style="fill:none;stroke:#000000;stroke-width:1.73840952;stroke-linejoin:round"
       id="rect2985"
       width="223.2616"
       height="313.2616"
       x="-513.61285"
       y="-424.15369"
       ry="8.9503307"
       transform="scale(-1,-1)" />
    <flowRoot
       style="font-size:14px;text-align:center;line-height:125%;letter-spacing:0px;word-spacing:0px;text-anchor:middle;fill:#000000;font-family:Nimbus Mono;-inkscape-font-specification:Nimbus Mono"
       id="flowRoot10757"
       xml:space="preserve"
       transform="translate(265.22515,71.17256)"><flowRegion
         id="flowRegion10759"><rect
           y="211.91527"
           x="73.236061"
           height="120"
           width="134.3503"
           id="rect10761" /></flowRegion><flowPara
         id="flowPara10763">You found kitten! Way to go, robot.</flowPara></flowRoot>    <text
       sodipodi:linespacing="125%"
       id="text10765"
       y="239.6776"
       x="401.95673"
       style="fill:red;font-size:100px;line-height:125%;letter-spacing:0px;word-spacing:0px;text-anchor:middle;font-family:Nimbus Mono;-inkscape-font-specification:Nimbus Mono"
       xml:space="preserve"><tspan
         y="239.6776"
         x="401.95673"
         id="tspan10767"
         sodipodi:role="line">😸</tspan></text>
    
    <g
      id="kitten_meet"
      style="fill:red;" >
      <path
         d="m 337.27426,367.62463 c 0.59895,0.29949 1.11001,0.44923 1.5332,0.44922 0.42317,1e-5 0.93423,-0.14973 1.5332,-0.44922 l 0.60547,1.17187 c -0.78126,0.39715 -1.49415,0.59571 -2.13867,0.59571 -0.65756,0 -1.37045,-0.19856 -2.13867,-0.59571 l 0.60547,-1.17187 m 1.5625,2.46094 c 0.74217,0.24089 1.49087,0.36133 2.24609,0.36133 1.02863,0 2.01822,-0.21484 2.96875,-0.64454 0.0325,0.20834 0.0488,0.39389 0.0488,0.55664 -2e-5,0.44272 -0.0944,0.89519 -0.2832,1.35743 -0.35158,0.83984 -0.97658,1.50065 -1.875,1.98242 -0.89194,0.47526 -1.91733,0.71289 -3.07618,0.71289 -1.15886,0 -2.1875,-0.23112 -3.08593,-0.69336 -0.89845,-0.46875 -1.53972,-1.11002 -1.92383,-1.92383 -0.22787,-0.48828 -0.3418,-1.0026 -0.3418,-1.54297 0,-0.14973 0.01,-0.29947 0.0293,-0.44922 0.97004,0.4297 1.9759,0.64454 3.01758,0.64454 0.78775,0 1.54621,-0.12044 2.27539,-0.36133 m -7.68555,-4.08203 c 0,0.23438 0.0228,0.67058 0.0684,1.30859 l 3.25195,-0.20508 0.0488,0.6543 -3.24219,0.21484 c 0.0521,0.48178 0.1237,0.93425 0.21485,1.35742 l 3.00781,-1.02539 0.21484,0.61524 -3.04687,1.05469 c 0.11718,0.3776 0.24739,0.72591 0.39062,1.04492 0.66406,1.47135 1.52669,2.5944 2.58789,3.36914 1.17838,0.85937 2.5651,1.28906 4.16016,1.28906 1.59504,0 2.98176,-0.42969 4.16016,-1.28906 1.04816,-0.76823 1.90753,-1.89128 2.57812,-3.36914 0.16925,-0.36458 0.30597,-0.7194 0.41016,-1.06446 l -2.99805,-1.03515 0.21484,-0.61524 2.94922,1.00586 c 0.0911,-0.40364 0.16275,-0.85285 0.21485,-1.34765 l -3.1836,-0.20508 0.0488,-0.6543 3.19336,0.20508 c 0.039,-0.53385 0.0586,-0.97004 0.0586,-1.30859 -10e-6,-0.29947 -0.0163,-0.61523 -0.0488,-0.94727 -0.0326,-0.33202 -0.0651,-0.59895 -0.0977,-0.80078 -0.0326,-0.20181 -0.0847,-0.49478 -0.15625,-0.87891 -0.0716,-0.3841 -0.12046,-0.65754 -0.14648,-0.82031 -0.1758,-1.04816 -0.40041,-2.11587 -0.67383,-3.20312 -1.58205,0.37762 -2.87111,1.20444 -3.86719,2.48046 -0.75522,-0.1367 -1.63738,-0.20506 -2.64648,-0.20507 -1.02215,1e-5 -1.91082,0.0684 -2.66602,0.20507 -0.9961,-1.27602 -2.28516,-2.10284 -3.86719,-2.48046 -0.27344,1.08725 -0.49805,2.15496 -0.67383,3.20312 -0.0326,0.17579 -0.0846,0.44923 -0.15625,0.82031 -0.0651,0.37111 -0.11719,0.66408 -0.15625,0.87891 -0.0326,0.20834 -0.0651,0.47853 -0.0976,0.81055 -0.0326,0.32553 -0.0488,0.63803 -0.0488,0.9375 m -1.25,1.39648 c -0.0326,-0.50129 -0.0488,-0.97655 -0.0488,-1.42578 0,-0.37108 0.01,-0.72916 0.0293,-1.07422 0.026,-0.34504 0.0684,-0.70962 0.12695,-1.09375 0.0651,-0.39061 0.11719,-0.69009 0.15625,-0.89844 0.0391,-0.21483 0.10742,-0.55988 0.20508,-1.03515 0.10416,-0.48176 0.17252,-0.80077 0.20508,-0.95703 0.14974,-0.76171 0.3483,-1.5983 0.5957,-2.50977 l 0.14649,-0.56641 0.58593,0.0879 c 0.93099,0.14325 1.80664,0.43947 2.62696,0.88868 0.82681,0.44272 1.54296,0.97983 2.14843,1.61132 0.68359,-0.0846 1.39322,-0.12693 2.12891,-0.12695 0.73567,2e-5 1.4453,0.0423 2.12891,0.12695 0.60545,-0.63149 1.31834,-1.1686 2.13867,-1.61132 0.82681,-0.44921 1.70571,-0.74543 2.63672,-0.88868 l 0.57617,-0.0879 0.15625,0.56641 c 0.24738,0.91147 0.44594,1.74806 0.5957,2.50977 0.0325,0.15626 0.0976,0.47527 0.19531,0.95703 0.10415,0.47527 0.17577,0.82032 0.21485,1.03515 0.039,0.20835 0.0879,0.50783 0.14648,0.89844 0.0651,0.38413 0.10741,0.74871 0.12696,1.09375 0.026,0.34506 0.039,0.70314 0.0391,1.07422 -2e-5,0.44272 -0.0163,0.91472 -0.0488,1.41601 l 1.02539,0.0684 -0.0391,0.66407 -1.04492,-0.0684 c -0.0521,0.5599 -0.14651,1.12305 -0.28321,1.68945 l 1.01563,0.35156 -0.21485,0.625 -0.97656,-0.33203 c -0.12371,0.39063 -0.27345,0.78126 -0.44922,1.17188 -0.75522,1.6862 -1.75783,2.98502 -3.00781,3.89648 -1.41277,1.02865 -3.05665,1.54297 -4.93164,1.54297 -1.88152,0 -3.52865,-0.51432 -4.94141,-1.54297 -1.25,-0.91146 -2.2526,-2.21028 -3.00781,-3.89648 -0.1888,-0.41667 -0.33529,-0.80078 -0.43945,-1.15235 l -0.91797,0.3125 -0.21484,-0.625 0.95703,-0.33203 c -0.13021,-0.51432 -0.22461,-1.08398 -0.28321,-1.70898 l -0.98632,0.0684 -0.0391,-0.66407 0.9668,-0.0586 m 7.01172,-0.73242 c -1e-5,-0.27994 -0.0358,-0.5664 -0.10742,-0.85938 -0.0651,-0.29296 -0.17905,-0.55012 -0.3418,-0.77148 -0.15626,-0.22785 -0.3418,-0.34179 -0.55664,-0.3418 -0.21485,10e-6 -0.40365,0.11395 -0.56641,0.3418 -0.15625,0.22136 -0.27019,0.47852 -0.34179,0.77148 -0.0651,0.28647 -0.0977,0.57293 -0.0977,0.85938 l -1.31836,0 c 0,-0.91145 0.22786,-1.68619 0.68359,-2.32422 0.45573,-0.63801 1.0026,-0.95702 1.64063,-0.95703 0.63801,1e-5 1.18489,0.31902 1.64062,0.95703 0.45572,0.63803 0.68359,1.41277 0.6836,2.32422 l -1.31836,0 m 5.78125,0 c -2e-5,-0.27994 -0.0358,-0.5664 -0.10742,-0.85938 -0.0651,-0.29296 -0.17905,-0.55012 -0.3418,-0.77148 -0.15626,-0.22785 -0.34181,-0.34179 -0.55664,-0.3418 -0.21486,10e-6 -0.40366,0.11395 -0.56641,0.3418 -0.15626,0.22136 -0.27019,0.47852 -0.34179,0.77148 -0.0651,0.28647 -0.0977,0.57293 -0.0977,0.85938 l -1.31836,0 c -1e-5,-0.91145 0.22785,-1.68619 0.68359,-2.32422 0.45572,-0.63801 1.0026,-0.95702 1.64063,-0.95703 0.63801,1e-5 1.18488,0.31902 1.64062,0.95703 0.45572,0.63803 0.68358,1.41277 0.6836,2.32422 l -1.31836,0 m -3.11524,4.9707 c -0.23438,-0.0456 -0.48178,-0.10416 -0.74218,-0.17578 -0.16928,0.0456 -0.41668,0.10092 -0.74219,0.16602 l 0,1.41601 c 0.27994,0.0326 0.5371,0.0488 0.77148,0.0488 0.26692,0 0.50455,-0.013 0.71289,-0.0391 l 0,-1.41602 m 1.32813,0.12695 0,0.9668 c 0.62499,-0.2539 1.1035,-0.60872 1.43555,-1.06445 -0.46877,0.0651 -0.89194,0.0977 -1.26954,0.0977 l -0.16601,0 m -4.14063,0.94727 0,-0.94727 -0.20507,0 c -0.41017,10e-6 -0.82032,-0.0293 -1.23047,-0.0879 0.33853,0.43621 0.81705,0.78126 1.43554,1.03516"
         style="opacity:0.3;-inkscape-font-specification:Nimbus Mono"
         id="path10769"
         inkscape:connector-curvature="0" />
      <path
         d="m 364.50082,367.62463 c 0.59895,0.29949 1.11002,0.44923 1.5332,0.44922 0.42317,1e-5 0.93424,-0.14973 1.53321,-0.44922 l 0.60546,1.17187 c -0.78126,0.39715 -1.49415,0.59571 -2.13867,0.59571 -0.65756,0 -1.37045,-0.19856 -2.13867,-0.59571 l 0.60547,-1.17187 m 1.5625,2.46094 c 0.74218,0.24089 1.49087,0.36133 2.24609,0.36133 1.02864,0 2.01822,-0.21484 2.96875,-0.64454 0.0325,0.20834 0.0488,0.39389 0.0488,0.55664 -10e-6,0.44272 -0.0944,0.89519 -0.2832,1.35743 -0.35158,0.83984 -0.97658,1.50065 -1.875,1.98242 -0.89194,0.47526 -1.91733,0.71289 -3.07617,0.71289 -1.15887,0 -2.18751,-0.23112 -3.08594,-0.69336 -0.89845,-0.46875 -1.53972,-1.11002 -1.92383,-1.92383 -0.22787,-0.48828 -0.3418,-1.0026 -0.3418,-1.54297 0,-0.14973 0.01,-0.29947 0.0293,-0.44922 0.97005,0.4297 1.9759,0.64454 3.01758,0.64454 0.78775,0 1.54621,-0.12044 2.27539,-0.36133 m -7.68555,-4.08203 c 0,0.23438 0.0228,0.67058 0.0684,1.30859 l 3.25195,-0.20508 0.0488,0.6543 -3.24218,0.21484 c 0.0521,0.48178 0.12369,0.93425 0.21484,1.35742 l 3.00781,-1.02539 0.21485,0.61524 -3.04688,1.05469 c 0.11718,0.3776 0.24739,0.72591 0.39063,1.04492 0.66405,1.47135 1.52668,2.5944 2.58789,3.36914 1.17837,0.85937 2.56509,1.28906 4.16015,1.28906 1.59504,0 2.98176,-0.42969 4.16016,-1.28906 1.04816,-0.76823 1.90753,-1.89128 2.57812,-3.36914 0.16926,-0.36458 0.30598,-0.7194 0.41016,-1.06446 l -2.99805,-1.03515 0.21485,-0.61524 2.94922,1.00586 c 0.0911,-0.40364 0.16274,-0.85285 0.21484,-1.34765 l -3.18359,-0.20508 0.0488,-0.6543 3.19336,0.20508 c 0.039,-0.53385 0.0586,-0.97004 0.0586,-1.30859 -2e-5,-0.29947 -0.0163,-0.61523 -0.0488,-0.94727 -0.0326,-0.33202 -0.0651,-0.59895 -0.0977,-0.80078 -0.0326,-0.20181 -0.0847,-0.49478 -0.15625,-0.87891 -0.0716,-0.3841 -0.12046,-0.65754 -0.14648,-0.82031 -0.1758,-1.04816 -0.40041,-2.11587 -0.67383,-3.20312 -1.58205,0.37762 -2.87111,1.20444 -3.86719,2.48046 -0.75522,-0.1367 -1.63738,-0.20506 -2.64648,-0.20507 -1.02215,1e-5 -1.91082,0.0684 -2.66602,0.20507 -0.9961,-1.27602 -2.28516,-2.10284 -3.86719,-2.48046 -0.27344,1.08725 -0.49805,2.15496 -0.67382,3.20312 -0.0326,0.17579 -0.0846,0.44923 -0.15625,0.82031 -0.0651,0.37111 -0.11719,0.66408 -0.15625,0.87891 -0.0326,0.20834 -0.0651,0.47853 -0.0977,0.81055 -0.0326,0.32553 -0.0488,0.63803 -0.0488,0.9375 m -1.25,1.39648 c -0.0326,-0.50129 -0.0488,-0.97655 -0.0488,-1.42578 0,-0.37108 0.01,-0.72916 0.0293,-1.07422 0.026,-0.34504 0.0684,-0.70962 0.12695,-1.09375 0.0651,-0.39061 0.11719,-0.69009 0.15625,-0.89844 0.0391,-0.21483 0.10742,-0.55988 0.20508,-1.03515 0.10417,-0.48176 0.17253,-0.80077 0.20508,-0.95703 0.14974,-0.76171 0.34831,-1.5983 0.5957,-2.50977 l 0.14649,-0.56641 0.58594,0.0879 c 0.93098,0.14325 1.80663,0.43947 2.62695,0.88868 0.82681,0.44272 1.54296,0.97983 2.14844,1.61132 0.68358,-0.0846 1.39322,-0.12693 2.1289,-0.12695 0.73567,2e-5 1.4453,0.0423 2.12891,0.12695 0.60545,-0.63149 1.31834,-1.1686 2.13867,-1.61132 0.82681,-0.44921 1.70571,-0.74543 2.63672,-0.88868 l 0.57617,-0.0879 0.15625,0.56641 c 0.24738,0.91147 0.44595,1.74806 0.5957,2.50977 0.0325,0.15626 0.0976,0.47527 0.19532,0.95703 0.10414,0.47527 0.17576,0.82032 0.21484,1.03515 0.039,0.20835 0.0879,0.50783 0.14648,0.89844 0.0651,0.38413 0.10741,0.74871 0.12696,1.09375 0.026,0.34506 0.039,0.70314 0.0391,1.07422 -2e-5,0.44272 -0.0163,0.91472 -0.0488,1.41601 l 1.02539,0.0684 -0.0391,0.66407 -1.04492,-0.0684 c -0.0521,0.5599 -0.1465,1.12305 -0.2832,1.68945 l 1.01562,0.35156 -0.21484,0.625 -0.97657,-0.33203 c -0.12371,0.39063 -0.27345,0.78126 -0.44921,1.17188 -0.75523,1.6862 -1.75783,2.98502 -3.00782,3.89648 -1.41277,1.02865 -3.05665,1.54297 -4.93164,1.54297 -1.88152,0 -3.52865,-0.51432 -4.9414,-1.54297 -1.25001,-0.91146 -2.25261,-2.21028 -3.00782,-3.89648 -0.1888,-0.41667 -0.33528,-0.80078 -0.43945,-1.15235 l -0.91797,0.3125 -0.21484,-0.625 0.95703,-0.33203 c -0.13021,-0.51432 -0.22461,-1.08398 -0.2832,-1.70898 l -0.98633,0.0684 -0.0391,-0.66407 0.96679,-0.0586 m 7.01172,-0.73242 c -1e-5,-0.27994 -0.0358,-0.5664 -0.10742,-0.85938 -0.0651,-0.29296 -0.17905,-0.55012 -0.3418,-0.77148 -0.15626,-0.22785 -0.3418,-0.34179 -0.55664,-0.3418 -0.21485,10e-6 -0.40365,0.11395 -0.5664,0.3418 -0.15626,0.22136 -0.27019,0.47852 -0.3418,0.77148 -0.0651,0.28647 -0.0977,0.57293 -0.0977,0.85938 l -1.31836,0 c 0,-0.91145 0.22786,-1.68619 0.6836,-2.32422 0.45572,-0.63801 1.00259,-0.95702 1.64062,-0.95703 0.63801,1e-5 1.18489,0.31902 1.64063,0.95703 0.45572,0.63803 0.68358,1.41277 0.68359,2.32422 l -1.31836,0 m 5.78125,0 c -10e-6,-0.27994 -0.0358,-0.5664 -0.10742,-0.85938 -0.0651,-0.29296 -0.17905,-0.55012 -0.3418,-0.77148 -0.15626,-0.22785 -0.34181,-0.34179 -0.55664,-0.3418 -0.21486,10e-6 -0.40366,0.11395 -0.5664,0.3418 -0.15627,0.22136 -0.2702,0.47852 -0.3418,0.77148 -0.0651,0.28647 -0.0977,0.57293 -0.0977,0.85938 l -1.31836,0 c -10e-6,-0.91145 0.22786,-1.68619 0.6836,-2.32422 0.45571,-0.63801 1.00259,-0.95702 1.64062,-0.95703 0.63801,1e-5 1.18488,0.31902 1.64063,0.95703 0.45571,0.63803 0.68357,1.41277 0.68359,2.32422 l -1.31836,0 m -3.11523,4.9707 c -0.23439,-0.0456 -0.48178,-0.10416 -0.74219,-0.17578 -0.16928,0.0456 -0.41668,0.10092 -0.74219,0.16602 l 0,1.41601 c 0.27994,0.0326 0.5371,0.0488 0.77149,0.0488 0.26691,0 0.50454,-0.013 0.71289,-0.0391 l 0,-1.41602 m 1.32812,0.12695 0,0.9668 c 0.62499,-0.2539 1.1035,-0.60872 1.43555,-1.06445 -0.46876,0.0651 -0.89194,0.0977 -1.26953,0.0977 l -0.16602,0 m -4.14062,0.94727 0,-0.94727 -0.20508,0 c -0.41017,10e-6 -0.82032,-0.0293 -1.23047,-0.0879 0.33853,0.43621 0.81705,0.78126 1.43555,1.03516"
         style="opacity:0.6;-inkscape-font-specification:Nimbus Mono"
         id="path10771"
         inkscape:connector-curvature="0" />
      <path
         d="m 391.72738,367.62463 c 0.59895,0.29949 1.11002,0.44923 1.5332,0.44922 0.42317,1e-5 0.93424,-0.14973 1.53321,-0.44922 l 0.60547,1.17187 c -0.78126,0.39715 -1.49415,0.59571 -2.13868,0.59571 -0.65756,0 -1.37045,-0.19856 -2.13867,-0.59571 l 0.60547,-1.17187 m 1.5625,2.46094 c 0.74218,0.24089 1.49088,0.36133 2.2461,0.36133 1.02863,0 2.01821,-0.21484 2.96875,-0.64454 0.0325,0.20834 0.0488,0.39389 0.0488,0.55664 -1e-5,0.44272 -0.0944,0.89519 -0.2832,1.35743 -0.35158,0.83984 -0.97658,1.50065 -1.875,1.98242 -0.89194,0.47526 -1.91733,0.71289 -3.07617,0.71289 -1.15886,0 -2.18751,-0.23112 -3.08594,-0.69336 -0.89844,-0.46875 -1.53972,-1.11002 -1.92383,-1.92383 -0.22787,-0.48828 -0.3418,-1.0026 -0.34179,-1.54297 -1e-5,-0.14973 0.01,-0.29947 0.0293,-0.44922 0.97005,0.4297 1.97591,0.64454 3.01758,0.64454 0.78775,0 1.54622,-0.12044 2.27539,-0.36133 m -7.68555,-4.08203 c 0,0.23438 0.0228,0.67058 0.0684,1.30859 l 3.25196,-0.20508 0.0488,0.6543 -3.24219,0.21484 c 0.0521,0.48178 0.12369,0.93425 0.21484,1.35742 l 3.00781,-1.02539 0.21485,0.61524 -3.04688,1.05469 c 0.11719,0.3776 0.2474,0.72591 0.39063,1.04492 0.66406,1.47135 1.52669,2.5944 2.58789,3.36914 1.17838,0.85937 2.56509,1.28906 4.16015,1.28906 1.59505,0 2.98176,-0.42969 4.16016,-1.28906 1.04816,-0.76823 1.90754,-1.89128 2.57813,-3.36914 0.16925,-0.36458 0.30597,-0.7194 0.41015,-1.06446 l -2.99804,-1.03515 0.21484,-0.61524 2.94922,1.00586 c 0.0911,-0.40364 0.16274,-0.85285 0.21484,-1.34765 l -3.18359,-0.20508 0.0488,-0.6543 3.19336,0.20508 c 0.039,-0.53385 0.0586,-0.97004 0.0586,-1.30859 -2e-5,-0.29947 -0.0163,-0.61523 -0.0488,-0.94727 -0.0326,-0.33202 -0.0651,-0.59895 -0.0977,-0.80078 -0.0326,-0.20181 -0.0847,-0.49478 -0.15625,-0.87891 -0.0716,-0.3841 -0.12046,-0.65754 -0.14648,-0.82031 -0.1758,-1.04816 -0.40041,-2.11587 -0.67383,-3.20312 -1.58204,0.37762 -2.87111,1.20444 -3.86719,2.48046 -0.75522,-0.1367 -1.63738,-0.20506 -2.64648,-0.20507 -1.02214,1e-5 -1.91082,0.0684 -2.66602,0.20507 -0.9961,-1.27602 -2.28516,-2.10284 -3.86718,-2.48046 -0.27344,1.08725 -0.49805,2.15496 -0.67383,3.20312 -0.0326,0.17579 -0.0846,0.44923 -0.15625,0.82031 -0.0651,0.37111 -0.11719,0.66408 -0.15625,0.87891 -0.0326,0.20834 -0.0651,0.47853 -0.0977,0.81055 -0.0326,0.32553 -0.0488,0.63803 -0.0488,0.9375 m -1.25,1.39648 c -0.0326,-0.50129 -0.0488,-0.97655 -0.0488,-1.42578 0,-0.37108 0.01,-0.72916 0.0293,-1.07422 0.026,-0.34504 0.0684,-0.70962 0.12696,-1.09375 0.0651,-0.39061 0.11718,-0.69009 0.15625,-0.89844 0.0391,-0.21483 0.10742,-0.55988 0.20507,-1.03515 0.10417,-0.48176 0.17253,-0.80077 0.20508,-0.95703 0.14974,-0.76171 0.34831,-1.5983 0.59571,-2.50977 l 0.14648,-0.56641 0.58594,0.0879 c 0.93098,0.14325 1.80663,0.43947 2.62695,0.88868 0.82682,0.44272 1.54296,0.97983 2.14844,1.61132 0.68358,-0.0846 1.39322,-0.12693 2.1289,-0.12695 0.73567,2e-5 1.44531,0.0423 2.12891,0.12695 0.60546,-0.63149 1.31835,-1.1686 2.13867,-1.61132 0.82681,-0.44921 1.70572,-0.74543 2.63672,-0.88868 l 0.57617,-0.0879 0.15625,0.56641 c 0.24738,0.91147 0.44595,1.74806 0.59571,2.50977 0.0325,0.15626 0.0976,0.47527 0.19531,0.95703 0.10415,0.47527 0.17576,0.82032 0.21484,1.03515 0.039,0.20835 0.0879,0.50783 0.14649,0.89844 0.0651,0.38413 0.1074,0.74871 0.12695,1.09375 0.026,0.34506 0.039,0.70314 0.0391,1.07422 -2e-5,0.44272 -0.0163,0.91472 -0.0488,1.41601 l 1.0254,0.0684 -0.0391,0.66407 -1.04492,-0.0684 c -0.0521,0.5599 -0.1465,1.12305 -0.2832,1.68945 l 1.01562,0.35156 -0.21484,0.625 -0.97656,-0.33203 c -0.12372,0.39063 -0.27346,0.78126 -0.44922,1.17188 -0.75523,1.6862 -1.75783,2.98502 -3.00781,3.89648 -1.41278,1.02865 -3.05666,1.54297 -4.93165,1.54297 -1.88151,0 -3.52865,-0.51432 -4.9414,-1.54297 -1.25001,-0.91146 -2.25261,-2.21028 -3.00781,-3.89648 -0.18881,-0.41667 -0.33529,-0.80078 -0.43946,-1.15235 l -0.91797,0.3125 -0.21484,-0.625 0.95703,-0.33203 c -0.13021,-0.51432 -0.22461,-1.08398 -0.2832,-1.70898 l -0.98633,0.0684 -0.0391,-0.66407 0.96679,-0.0586 m 7.01172,-0.73242 c 0,-0.27994 -0.0358,-0.5664 -0.10742,-0.85938 -0.0651,-0.29296 -0.17904,-0.55012 -0.3418,-0.77148 -0.15625,-0.22785 -0.3418,-0.34179 -0.55664,-0.3418 -0.21485,10e-6 -0.40365,0.11395 -0.5664,0.3418 -0.15626,0.22136 -0.27019,0.47852 -0.3418,0.77148 -0.0651,0.28647 -0.0977,0.57293 -0.0977,0.85938 l -1.31835,0 c -1e-5,-0.91145 0.22785,-1.68619 0.68359,-2.32422 0.45572,-0.63801 1.0026,-0.95702 1.64062,-0.95703 0.63802,1e-5 1.18489,0.31902 1.64063,0.95703 0.45572,0.63803 0.68358,1.41277 0.68359,2.32422 l -1.31836,0 m 5.78125,0 c -10e-6,-0.27994 -0.0358,-0.5664 -0.10742,-0.85938 -0.0651,-0.29296 -0.17905,-0.55012 -0.3418,-0.77148 -0.15626,-0.22785 -0.34181,-0.34179 -0.55664,-0.3418 -0.21485,10e-6 -0.40365,0.11395 -0.5664,0.3418 -0.15626,0.22136 -0.2702,0.47852 -0.3418,0.77148 -0.0651,0.28647 -0.0977,0.57293 -0.0977,0.85938 l -1.31835,0 c -2e-5,-0.91145 0.22785,-1.68619 0.68359,-2.32422 0.45572,-0.63801 1.00259,-0.95702 1.64062,-0.95703 0.63801,1e-5 1.18489,0.31902 1.64063,0.95703 0.45571,0.63803 0.68358,1.41277 0.68359,2.32422 l -1.31836,0 m -3.11523,4.9707 c -0.23439,-0.0456 -0.48178,-0.10416 -0.74219,-0.17578 -0.16928,0.0456 -0.41667,0.10092 -0.74219,0.16602 l 0,1.41601 c 0.27994,0.0326 0.5371,0.0488 0.77149,0.0488 0.26692,0 0.50455,-0.013 0.71289,-0.0391 l 0,-1.41602 m 1.32812,0.12695 0,0.9668 c 0.62499,-0.2539 1.10351,-0.60872 1.43555,-1.06445 -0.46876,0.0651 -0.89194,0.0977 -1.26953,0.0977 l -0.16602,0 m -4.14062,0.94727 0,-0.94727 -0.20508,0 c -0.41016,10e-6 -0.82032,-0.0293 -1.23047,-0.0879 0.33854,0.43621 0.81705,0.78126 1.43555,1.03516"
         style="-inkscape-font-specification:Nimbus Mono"
         id="path10773"
         inkscape:connector-curvature="0" />
      <path
         d="m 416.21395,363.47541 0.24733,-3.62007 0.045,-0.51716 c 0.045,-0.49467 -0.53964,-1.05679 -1.12424,-1.05679 -0.33728,0 -0.65207,0.13491 -0.87692,0.40473 -0.20236,0.22485 -0.24733,0.38224 -0.26982,1.01182 l -0.26982,3.77747 -1.59643,0 0.24734,-3.62007 c 0,-0.22485 0.0225,-0.40473 0.0225,-0.40473 0,-0.67455 -0.47218,-1.16922 -1.12425,-1.16922 -0.33727,0 -0.65206,0.13491 -0.87691,0.40473 -0.20236,0.24733 -0.24733,0.40473 -0.26982,1.01182 l -0.26982,3.77747 -0.58461,0 c -0.58461,0 -0.742,0.0225 -0.94437,0.13491 -0.33727,0.20237 -0.56212,0.58461 -0.56212,0.98934 0,0.33728 0.15739,0.67455 0.4497,0.8994 0.22485,0.17988 0.42721,0.22485 1.05679,0.22485 l 0.42722,0 -0.1574,2.38341 -0.742,0 c -0.56213,0 -0.71952,0.0225 -0.92189,0.13491 -0.33727,0.20236 -0.56212,0.5846 -0.56212,0.96685 0,0.35976 0.1574,0.67455 0.4497,0.8994 0.22485,0.17988 0.4497,0.22485 1.03431,0.22485 l 0.58461,0 -0.24734,3.62008 c -0.0225,0.15739 -0.0225,0.31478 -0.0225,0.40472 0,0.67455 0.47218,1.16922 1.12424,1.16922 0.74201,0 1.12425,-0.47218 1.12425,-1.41655 l 0.26982,-3.77747 1.61892,0 -0.24734,3.62008 -0.045,0.42721 c -0.045,0.58461 0.51716,1.14673 1.10177,1.14673 0.33727,0 0.62958,-0.13491 0.85443,-0.40473 0.13491,-0.15739 0.2923,-0.62958 0.31479,-1.01182 l 0.24733,-3.77747 0.60709,0 c 0.98934,0 1.48401,-0.35976 1.48401,-1.10177 0,-0.35976 -0.15739,-0.67455 -0.4497,-0.89939 -0.22485,-0.17988 -0.4497,-0.22485 -1.05679,-0.22485 l -0.42722,0 0.17988,-2.38341 0.71952,0 c 0.53964,0 0.71952,-0.0225 0.92189,-0.15739 0.33727,-0.17988 0.56212,-0.56213 0.56212,-0.96686 0,-0.33727 -0.15739,-0.67455 -0.4497,-0.8994 -0.22485,-0.17988 -0.42721,-0.22485 -1.03431,-0.22485 l -0.56212,0 m -2.40589,2.2485 -0.1574,2.38341 -1.61891,0 0.17988,-2.38341 1.59643,0"
         style="-inkscape-font-specification:Nimbus Mono Bold"
         id="path10775"
         inkscape:connector-curvature="0" />
      <path
         d="m 443.17833,363.47541 0.24734,-3.62007 0.045,-0.51716 c 0.045,-0.49467 -0.53964,-1.05679 -1.12425,-1.05679 -0.33727,0 -0.65206,0.13491 -0.87691,0.40473 -0.20237,0.22485 -0.24734,0.38224 -0.26982,1.01182 l -0.26982,3.77747 -1.59643,0 0.24733,-3.62007 c 0,-0.22485 0.0225,-0.40473 0.0225,-0.40473 0,-0.67455 -0.47219,-1.16922 -1.12425,-1.16922 -0.33728,0 -0.65207,0.13491 -0.87692,0.40473 -0.20236,0.24733 -0.24733,0.40473 -0.26982,1.01182 l -0.26982,3.77747 -0.5846,0 c -0.58461,0 -0.74201,0.0225 -0.94437,0.13491 -0.33728,0.20237 -0.56213,0.58461 -0.56213,0.98934 0,0.33728 0.1574,0.67455 0.4497,0.8994 0.22485,0.17988 0.42722,0.22485 1.0568,0.22485 l 0.42721,0 -0.15739,2.38341 -0.74201,0 c -0.56212,0 -0.71952,0.0225 -0.92188,0.13491 -0.33728,0.20236 -0.56213,0.5846 -0.56213,0.96685 0,0.35976 0.1574,0.67455 0.4497,0.8994 0.22485,0.17988 0.4497,0.22485 1.03431,0.22485 l 0.58461,0 -0.24733,3.62008 c -0.0225,0.15739 -0.0225,0.31478 -0.0225,0.40472 0,0.67455 0.47219,1.16922 1.12425,1.16922 0.742,0 1.12425,-0.47218 1.12425,-1.41655 l 0.26982,-3.77747 1.61891,0 -0.24733,3.62008 -0.045,0.42721 c -0.045,0.58461 0.51715,1.14673 1.10176,1.14673 0.33728,0 0.62958,-0.13491 0.85443,-0.40473 0.13491,-0.15739 0.2923,-0.62958 0.31479,-1.01182 l 0.24733,-3.77747 0.6071,0 c 0.98934,0 1.48401,-0.35976 1.48401,-1.10177 0,-0.35976 -0.1574,-0.67455 -0.4497,-0.89939 -0.22485,-0.17988 -0.4497,-0.22485 -1.0568,-0.22485 l -0.42721,0 0.17988,-2.38341 0.71952,0 c 0.53964,0 0.71952,-0.0225 0.92188,-0.15739 0.33727,-0.17988 0.56212,-0.56213 0.56212,-0.96686 0,-0.33727 -0.15739,-0.67455 -0.44969,-0.8994 -0.22485,-0.17988 -0.42722,-0.22485 -1.03431,-0.22485 l -0.56213,0 m -2.40589,2.2485 -0.15739,2.38341 -1.61892,0 0.17988,-2.38341 1.59643,0"
         style="opacity:0.6;-inkscape-font-specification:Nimbus Mono Bold"
         id="path10777"
         inkscape:connector-curvature="0" />
      <path
         d="m 470.14272,363.47541 0.24733,-3.62007 0.045,-0.51716 c 0.045,-0.49467 -0.53964,-1.05679 -1.12425,-1.05679 -0.33727,0 -0.65206,0.13491 -0.87691,0.40473 -0.20236,0.22485 -0.24733,0.38224 -0.26982,1.01182 l -0.26982,3.77747 -1.59643,0 0.24733,-3.62007 c 0,-0.22485 0.0225,-0.40473 0.0225,-0.40473 0,-0.67455 -0.47219,-1.16922 -1.12425,-1.16922 -0.33727,0 -0.65206,0.13491 -0.87691,0.40473 -0.20237,0.24733 -0.24734,0.40473 -0.26982,1.01182 l -0.26982,3.77747 -0.58461,0 c -0.58461,0 -0.742,0.0225 -0.94437,0.13491 -0.33727,0.20237 -0.56212,0.58461 -0.56212,0.98934 0,0.33728 0.15739,0.67455 0.4497,0.8994 0.22485,0.17988 0.42721,0.22485 1.05679,0.22485 l 0.42721,0 -0.15739,2.38341 -0.742,0 c -0.56213,0 -0.71952,0.0225 -0.92189,0.13491 -0.33727,0.20236 -0.56212,0.5846 -0.56212,0.96685 0,0.35976 0.15739,0.67455 0.4497,0.8994 0.22485,0.17988 0.4497,0.22485 1.03431,0.22485 l 0.5846,0 -0.24733,3.62008 c -0.0225,0.15739 -0.0225,0.31478 -0.0225,0.40472 0,0.67455 0.47218,1.16922 1.12424,1.16922 0.74201,0 1.12425,-0.47218 1.12425,-1.41655 l 0.26982,-3.77747 1.61892,0 -0.24734,3.62008 -0.045,0.42721 c -0.045,0.58461 0.51716,1.14673 1.10177,1.14673 0.33727,0 0.62958,-0.13491 0.85442,-0.40473 0.13491,-0.15739 0.29231,-0.62958 0.31479,-1.01182 l 0.24734,-3.77747 0.60709,0 c 0.98934,0 1.48401,-0.35976 1.48401,-1.10177 0,-0.35976 -0.1574,-0.67455 -0.4497,-0.89939 -0.22485,-0.17988 -0.4497,-0.22485 -1.05679,-0.22485 l -0.42722,0 0.17988,-2.38341 0.71952,0 c 0.53964,0 0.71952,-0.0225 0.92188,-0.15739 0.33728,-0.17988 0.56213,-0.56213 0.56213,-0.96686 0,-0.33727 -0.1574,-0.67455 -0.4497,-0.8994 -0.22485,-0.17988 -0.42722,-0.22485 -1.03431,-0.22485 l -0.56212,0 m -2.40589,2.2485 -0.1574,2.38341 -1.61891,0 0.17987,-2.38341 1.59644,0"
         style="opacity:0.3;-inkscape-font-specification:Nimbus Mono Bold"
         id="path10779"
         inkscape:connector-curvature="0" />
    </g>
    
    <text
       sodipodi:linespacing="125%"
       id="text3994"
       y="135.356"
       x="300.50125"
       style="font-size:25px;line-height:125%;letter-spacing:0px;word-spacing:0px;fill:#000000;font-family:Nimbus Mono;-inkscape-font-specification:Nimbus Mono"
       xml:space="preserve"><tspan
         y="135.356"
         x="300.50125"
         id="tspan3996"
         sodipodi:role="line">A</tspan></text>
    <text
       xml:space="preserve"
       style="font-size:25px;line-height:125%;letter-spacing:0px;word-spacing:0px;fill:#000000;font-family:Nimbus Mono;-inkscape-font-specification:Nimbus Mono"
       x="-503.45126"
       y="-399.70599"
       id="text3998"
       sodipodi:linespacing="125%"
       transform="scale(-1,-1)"><tspan
         sodipodi:role="line"
         id="tspan4000"
         x="-503.45126"
         y="-399.70599">A</tspan></text>
    <text
       xml:space="preserve"
       style="fill:red;font-size:25px;line-height:125%;letter-spacing:0px;word-spacing:0px;text-anchor:end;font-family:Nimbus Mono;-inkscape-font-specification:Nimbus Mono"
       x="504.16647"
       y="135.681"
       id="text3425"
       sodipodi:linespacing="125%"><tspan
         sodipodi:role="line"
         id="tspan3427"
         x="504.16647"
         y="135.681">♣</tspan></text>
    <text
       transform="scale(-1,-1)"
       sodipodi:linespacing="125%"
       id="text3429"
       y="-399.38101"
       x="-299.78601"
       style="fill:red;font-size:25px;line-height:125%;letter-spacing:0px;word-spacing:0px;text-anchor:end;font-family:Nimbus Mono;-inkscape-font-specification:Nimbus Mono"
       xml:space="preserve"><tspan
         y="-399.38101"
         x="-299.78601"
         id="tspan3431"
         sodipodi:role="line">♣</tspan></text>
  </g>
</svg>